<svg xmlns="http://www.w3.org/2000/svg" width="34.102" height="46.589" viewBox="0 0 34.102 46.589">
  <g id="Group_44" data-name="Group 44" transform="translate(-470.977 -1388.179)">
    <path id="Path_3" data-name="Path 3" d="M139.608,170.669H113.98V137.7h25.628v32.97Zm-12.8-9.632h7.565c.1,0,.206-.005.309,0,.375.022.5-.238.517-.525.016-.327-.222-.453-.531-.449-.089,0-.177,0-.266,0H119.18c-.1,0-.207-.006-.309,0-.426.035-.621.353-.379.7a.788.788,0,0,0,.569.264c2.581.017,5.161.011,7.742.011Zm.014,2.922h-7.656a2.09,2.09,0,0,0-.4.011.413.413,0,0,0-.259.7.921.921,0,0,0,.593.252q7.7.02,15.4.01c.4,0,.729-.239.7-.537-.038-.423-.353-.438-.684-.438q-3.85.006-7.7,0Zm-2.705-10.713c1.712,0,3.424,0,5.136,0,.351,0,.634-.071.639-.486s-.279-.494-.63-.493c-1.446.005-2.892,0-4.339,0q-2.944,0-5.888,0c-.3,0-.572.038-.639.4s.156.579.584.58q2.568.006,5.136,0Zm.03,2.922c-1.7,0-3.393,0-5.089,0-.338,0-.654.038-.658.46s.269.521.654.52q5.089-.013,10.179,0c.382,0,.659-.1.658-.516s-.315-.466-.654-.466c-1.7,0-3.393,0-5.089,0Zm1.377-15.139c-.13-.138-.254-.38-.412-.4a.61.61,0,0,0-.473.309c-.739,1.548-1.451,3.108-2.17,4.665q-.24.518-.47,1.041c-.129.292-.111.571.2.713.337.153.517-.078.642-.355.073-.159.131-.325.2-.484q1.047-2.279,2.095-4.558c.127-.278.232-.565.378-.927Zm-5.309,4.95a2.363,2.363,0,0,0-.231-.433,12.9,12.9,0,0,0-1.078-1.158c-.335-.3-.281-.5,0-.781.375-.371.719-.773,1.078-1.159a.5.5,0,0,0-.013-.778c-.268-.235-.475-.073-.685.187-.4.489-.836.944-1.276,1.4-.684.7-.691.7-.06,1.422.047.054.077.124.125.178.434.477.858.965,1.317,1.416a.6.6,0,0,0,.509.09c.13-.041.208-.243.312-.377Zm9.735-2.006a4,4,0,0,0-.333-.489c-.485-.531-1.006-1.031-1.467-1.582-.215-.257-.387-.463-.714-.244-.266.177-.238.548.036.844.369.4.734.8,1.106,1.194.2.215.233.387-.01.62-.4.385-.765.81-1.142,1.22a.5.5,0,0,0-.043.749c.258.269.512.14.722-.091q.843-.925,1.673-1.863a1.626,1.626,0,0,0,.171-.358Z" transform="translate(357.026 1257.246)" fill="#fff"/>
    <path id="Path_4" data-name="Path 4" d="M113.6,596.79h25.646c.06,1.487.185,2.979-.748,4.259a3.534,3.534,0,0,1-3,1.573c-2.508-.014-5.017,0-7.525,0-3.482,0-6.966-.044-10.447.016a3.9,3.9,0,0,1-3.92-3.683C113.55,598.249,113.6,597.54,113.6,596.79Z" transform="translate(357.398 832.134)" fill="#fff"/>
    <path id="Path_5" data-name="Path 5" d="M139.262,52.006H113.606c-.047-1.671-.174-3.334,1.183-4.685a3.391,3.391,0,0,1,2.482-1.044q9.16-.02,18.32-.005a3.786,3.786,0,0,1,3.663,3.738c.047.645.007,1.3.007,1.995Z" transform="translate(357.397 1341.911)" fill="#fff"/>
    <path id="Path_6" data-name="Path 6" d="M23.919,526.255a1.372,1.372,0,0,1,1.357-1.44,1.467,1.467,0,0,1-.038,2.919A1.4,1.4,0,0,1,23.919,526.255Z" transform="translate(474.883 898.782)" fill="#fff"/>
    <path id="Path_7" data-name="Path 7" d="M538.49,106.356a1.369,1.369,0,0,1,1.361-1.432,1.383,1.383,0,0,1,1.293,1.457,1.334,1.334,0,1,1-2.653-.024Z" transform="translate(-36.065 1287.597)" fill="#fff"/>
    <path id="Path_8" data-name="Path 8" d="M60.72,133.207a.922.922,0,0,1-.881-.967.887.887,0,1,1,1.764,0,.923.923,0,0,1-.884.964Z" transform="translate(441.62 1263.205)" fill="#fff"/>
    <path id="Path_9" data-name="Path 9" d="M527.427,564.32a.9.9,0,0,1,.887.95.888.888,0,1,1-1.764.01A.9.9,0,0,1,527.427,564.32Z" transform="translate(-25.008 862.201)" fill="#fff"/>
    <path id="Path_10" data-name="Path 10" d="M1.762,276.983a.892.892,0,0,1-.889.9.927.927,0,0,1,.011-1.852.9.9,0,0,1,.878.954Z" transform="translate(497.035 1129.155)" fill="#fff"/>
    <path id="Path_11" data-name="Path 11" d="M516.335,290.095a.884.884,0,1,1-.871-.916A.893.893,0,0,1,516.335,290.095Z" transform="translate(-13.915 1116.979)" fill="#fff"/>
  </g>
</svg>
