<svg id="Group_5" data-name="Group 5" xmlns="http://www.w3.org/2000/svg" width="32.185" height="32.058" viewBox="0 0 32.185 32.058">
  <path id="Path_1" data-name="Path 1" d="M1450.836,177.36v20.178a.71.71,0,0,0-.048.115,2.819,2.819,0,0,1-2.95,2.336q-13.1,0-26.209,0a2.831,2.831,0,0,1-2.977-2.981q0-9.648,0-19.3v-.353Zm-12.322,3.855a.987.987,0,0,0-.761-1.01.966.966,0,0,0-1.087.651q-2.787,6.5-5.571,13a.947.947,0,1,0,1.726.75q2.789-6.5,5.57-13a3.215,3.215,0,0,0,.122-.391Zm-12.623,6.519c.121-.1.214-.18.309-.256,1.144-.915,2.291-1.827,3.431-2.747a.942.942,0,0,0,.187-1.363.93.93,0,0,0-1.346-.121q-2.348,1.865-4.682,3.747a.917.917,0,0,0,0,1.471c1.562,1.263,3.128,2.523,4.714,3.756a1.2,1.2,0,0,0,.786.183.814.814,0,0,0,.715-.7.921.921,0,0,0-.365-.971q-1.419-1.14-2.844-2.275c-.292-.233-.582-.469-.9-.727Zm17.71-.005c-.128.106-.215.18-.3.251q-1.7,1.364-3.407,2.728a.946.946,0,1,0,1.17,1.477q2.3-1.829,4.585-3.667a.944.944,0,0,0-.006-1.576q-2.288-1.84-4.586-3.666a.944.944,0,1,0-1.181,1.467c.406.331.817.655,1.225.982Z" transform="translate(-1418.651 -167.931)" fill="#fff"/>
  <path id="Path_2" data-name="Path 2" d="M1451,2.446V7.538h-32.175c0-1.686,0-3.329,0-4.972a1.876,1.876,0,0,1,.085-.462A2.8,2.8,0,0,1,1421.6,0q13.309-.01,26.617,0h.031a2.758,2.758,0,0,1,2.436,1.567A6.509,6.509,0,0,1,1451,2.446Zm-7.574,1.32c-.92,0-1.841,0-2.761,0a.946.946,0,1,0-.017,1.884q2.745,0,5.491,0a.946.946,0,1,0-.014-1.884c-.9,0-1.8,0-2.7,0Zm-19.849,0a.942.942,0,1,0,.958.919.952.952,0,0,0-.958-.919Zm4.729.93a.942.942,0,1,0-.922.954.952.952,0,0,0,.922-.954Zm3.772.013a.942.942,0,1,0-.935.941A.952.952,0,0,0,1432.077,4.71Z" transform="translate(-1418.814 0.005)" fill="#fff"/>
</svg>
