<svg id="Group_4" data-name="Group 4" xmlns="http://www.w3.org/2000/svg" width="39.383" height="39.392" viewBox="0 0 39.383 39.392">
  <path id="Path_12" data-name="Path 12" d="M1386.8,1025.969a1.46,1.46,0,0,1-1.551.857c-1.371-.037-2.743-.009-4.114-.011a1.182,1.182,0,0,1-1.334-1.32c0-.317,0-.634,0-.969h-4.673c.153.113.257.194.365.27a14.711,14.711,0,0,1,6.371,10.269,1.987,1.987,0,0,0,1.061,1.746,3.222,3.222,0,0,1,1.4,3.55,3.474,3.474,0,0,1-2.8,2.625,3.441,3.441,0,0,1-2.053-6.5.341.341,0,0,0,.225-.41,12.652,12.652,0,0,0-4.837-8.854,12.294,12.294,0,0,0-4.433-2.222.305.305,0,0,0-.4.166,3.4,3.4,0,0,1-5.826.008.317.317,0,0,0-.432-.165,12.466,12.466,0,0,0-9.044,9.8c-.09.4-.108.813-.19,1.213a.366.366,0,0,0,.24.474,3.273,3.273,0,0,1,1.937,3.038,3.307,3.307,0,0,1-1.846,3.1,3.444,3.444,0,0,1-4.74-1.616,3.409,3.409,0,0,1,1.683-4.532.67.67,0,0,0,.444-.655,14.861,14.861,0,0,1,4.663-9.6c.647-.616,1.38-1.14,2.073-1.7h-4.569c0,.357.006.713,0,1.069a1.15,1.15,0,0,1-1.209,1.21q-2.288.013-4.576,0a1.143,1.143,0,0,1-1.209-1.208q-.014-2.25,0-4.5a1.143,1.143,0,0,1,1.209-1.209q2.288-.013,4.576,0a1.15,1.15,0,0,1,1.21,1.21c.007.345,0,.691,0,1.1h.419c2.871,0,5.743,0,8.613.006a.536.536,0,0,0,.578-.349,3.411,3.411,0,0,1,6.167.006.512.512,0,0,0,.541.345c2.884-.013,5.768-.007,8.652-.007h.412c0-.379,0-.721,0-1.064a1.16,1.16,0,0,1,1.256-1.241c1.474-.006,2.948.012,4.422-.008a1.359,1.359,0,0,1,1.32.852v5.231Z" transform="translate(-1347.417 -1019.887)" fill="#fff"/>
  <path id="Path_13" data-name="Path 13" d="M1572.561,1683.288c-.09-.047-.18-.092-.268-.139a1.09,1.09,0,0,1-.539-1.4,4.656,4.656,0,0,1,4.349-3.148q3.457-.042,6.914,0a4.657,4.657,0,0,1,4.349,3.148c.239.659,0,1.121-.807,1.536Z" transform="translate(-1559.865 -1643.895)" fill="#fff"/>
  <path id="Path_14" data-name="Path 14" d="M1535.894,1213.167l4.07,6.105q2.376,3.565,4.752,7.13a1.213,1.213,0,0,1-.141,1.789,14.538,14.538,0,0,0-3.787,7.3c-.02.1-.056.194-.094.325a4.091,4.091,0,0,0-.589-.187,15.933,15.933,0,0,0-2.16-.294c-2.126-.039-4.254-.007-6.381-.017a7.626,7.626,0,0,0-2.716.43,1.1,1.1,0,0,1-.185.039c-.279-.909-.517-1.812-.832-2.687a13.574,13.574,0,0,0-2.882-4.677c-.07-.075-.14-.149-.209-.225a1.228,1.228,0,0,1-.137-1.792q2.854-4.285,5.711-8.569l3.155-4.733c.017.159.035.248.035.337q0,5.113.006,10.228a.423.423,0,0,1-.287.459,3.4,3.4,0,0,0-1.957,3.756,3.456,3.456,0,0,0,6.563.732,3.415,3.415,0,0,0-1.67-4.453.525.525,0,0,1-.354-.573c.011-3.345.007-6.691.007-10.036v-.37l.081-.013Z" transform="translate(-1514.965 -1202.925)" fill="#fff"/>
</svg>
