<?xml version="1.0" encoding="UTF-8"?>
<svg id="Layer_1" data-name="Layer 1" xmlns="http://www.w3.org/2000/svg" xmlns:xlink="http://www.w3.org/1999/xlink" viewBox="0 0 571 564.19">
  <defs>
    <style>
      .cls-1 {
        fill: url(#linear-gradient-2);
      }

      .cls-2 {
        fill: url(#linear-gradient-3);
      }

      .cls-3 {
        fill: url(#linear-gradient);
      }
    </style>
    <linearGradient id="linear-gradient" x1="-250.14" y1="514.43" x2="507.45" y2="-233.18" gradientUnits="userSpaceOnUse">
      <stop offset="0" stop-color="#572297"/>
      <stop offset="1" stop-color="#2b117d"/>
    </linearGradient>
    <linearGradient id="linear-gradient-2" x1="-102.74" y1="663.8" x2="654.85" y2="-83.81" xlink:href="#linear-gradient"/>
    <linearGradient id="linear-gradient-3" x1="-101.32" y1="665.24" x2="656.27" y2="-82.38" xlink:href="#linear-gradient"/>
  </defs>
  <polygon class="cls-3" points="0 0 0 88.24 184.44 88.24 184.44 181.12 0 181.12 0 269.36 269.36 269.36 269.36 0 0 0"/>
  <polygon class="cls-1" points="0 564.19 88.24 564.19 88.24 379.76 181.12 379.76 181.12 564.19 269.36 564.19 269.36 294.84 0 294.84 0 564.19"/>
  <polygon class="cls-2" points="571 0 482.76 0 482.76 184.44 389.88 184.44 389.88 0 301.64 0 301.64 269.36 571 269.36 571 0"/>
</svg>