<?xml version="1.0" encoding="UTF-8"?>
<svg id="Layer_1" data-name="Layer 1" xmlns="http://www.w3.org/2000/svg" xmlns:xlink="http://www.w3.org/1999/xlink" viewBox="0 0 912.54 276.5">
  <defs>
    <style>
      .cls-1 {
        fill: url(#linear-gradient-2);
      }

      .cls-2 {
        fill: #3a3a3a;
      }

      .cls-3 {
        fill: #161616;
      }

      .cls-4 {
        fill: url(#linear-gradient-3);
      }

      .cls-5 {
        fill: url(#linear-gradient);
      }
    </style>
    <linearGradient id="linear-gradient" x1="-210.43" y1="189.07" x2="295.46" y2="-91.22" gradientUnits="userSpaceOnUse">
      <stop offset="0" stop-color="#572297"/>
      <stop offset="1" stop-color="#2b117d"/>
    </linearGradient>
    <linearGradient id="linear-gradient-2" x1="-167.14" y1="267.2" x2="338.74" y2="-13.09" xlink:href="#linear-gradient"/>
    <linearGradient id="linear-gradient-3" x1="-185.89" y1="233.36" x2="319.99" y2="-46.93" xlink:href="#linear-gradient"/>
  </defs>
  <g>
    <g>
      <polygon class="cls-5" points="0 0 0 30.56 63.87 30.56 63.87 62.72 0 62.72 0 93.28 93.28 93.28 93.28 0 0 0"/>
      <polygon class="cls-1" points="0 195.39 30.56 195.39 30.56 131.52 62.72 131.52 62.72 195.39 93.28 195.39 93.28 102.11 0 102.11 0 195.39"/>
      <polygon class="cls-4" points="197.75 0 167.19 0 167.19 63.87 135.02 63.87 135.02 0 104.46 0 104.46 93.28 197.75 93.28 197.75 0"/>
    </g>
    <g>
      <path class="cls-3" d="M165.82,181.04l-3.43,8.74c-5.93,3.74-12.95,5.62-20.59,5.62-13.73,0-26.67-8.58-26.67-24.65,0-17.78,16.85-28.7,45.08-28.7h5.3v-1.25c0-1.72,0-3.43-.31-6.08-.47-4.21-3.9-7.96-9.98-7.96-6.55,0-10.3,4.21-10.76,11.39l-26.52,.16c.16-19.5,17.47-30.57,38.53-30.57,26.36,0,35.41,11.7,36.66,26.83,.31,4.21,.47,9.05,.47,14.2v23.4c0,6.24,.31,11.86,1.56,21.06h-27.46l-1.87-12.17Zm-.31-17.63v-5.46c-12.64-.94-21.68,2.34-21.68,10.61,0,4.99,3.9,7.8,9.52,7.8s12.17-4.21,12.17-12.95Z"/>
      <path class="cls-3" d="M279.69,134.24h-27.61c-1.25-5.77-4.06-9.05-9.05-9.05-3.9,0-6.71,2.5-6.71,6.08,0,4.68,3.74,7.8,19.66,11.7,15.13,3.74,25.89,10.3,25.89,26.36,0,17.78-16.69,26.05-36.81,26.05-22.62,0-38.06-9.36-40.25-28.08h27.61c1.56,6.4,6.55,10.61,12.48,10.61,4.99,0,8.89-2.03,8.89-6.4,0-5.3-5.3-8.27-20.12-11.7-15.91-3.74-25.43-11.08-25.43-25.27,0-16.54,14.35-26.83,36.5-26.83,20.75,0,32.76,11.39,34.94,26.52Z"/>
      <path class="cls-3" d="M362.05,134.24h-27.61c-1.25-5.77-4.06-9.05-9.05-9.05-3.9,0-6.71,2.5-6.71,6.08,0,4.68,3.74,7.8,19.66,11.7,15.13,3.74,25.89,10.3,25.89,26.36,0,17.78-16.69,26.05-36.81,26.05-22.62,0-38.06-9.36-40.25-28.08h27.61c1.56,6.4,6.55,10.61,12.48,10.61,4.99,0,8.89-2.03,8.89-6.4,0-5.3-5.3-8.27-20.12-11.7-15.91-3.74-25.43-11.08-25.43-25.27,0-16.54,14.35-26.83,36.5-26.83,20.75,0,32.76,11.39,34.94,26.52Z"/>
      <path class="cls-3" d="M422.11,181.04l-3.43,8.74c-5.93,3.74-12.95,5.62-20.59,5.62-13.73,0-26.67-8.58-26.67-24.65,0-17.78,16.85-28.7,45.08-28.7h5.3v-1.25c0-1.72,0-3.43-.31-6.08-.47-4.21-3.9-7.96-9.98-7.96-6.55,0-10.3,4.21-10.76,11.39l-26.52,.16c.16-19.5,17.47-30.57,38.53-30.57,26.36,0,35.41,11.7,36.66,26.83,.31,4.21,.47,9.05,.47,14.2v23.4c0,6.24,.31,11.86,1.56,21.06h-27.45l-1.87-12.17Zm-.31-17.63v-5.46c-12.64-.94-21.68,2.34-21.68,10.61,0,4.99,3.9,7.8,9.52,7.8s12.17-4.21,12.17-12.95Z"/>
      <path class="cls-2" d="M592.14,143.76v49.45h-21.53v-43.21c0-4.84-.16-9.36-.62-13.57-1.09-8.58-5.77-13.26-14.04-13.26-9.67,0-15.13,8.27-15.13,27.45v42.59h-21.37v-43.21c0-4.84-.16-9.36-.62-13.57-1.09-8.58-5.93-13.26-14.2-13.26-9.67,0-14.98,8.27-14.98,27.45v42.59h-21.53V110.22h21.53v12.64l6.08-9.98c4.68-3.28,10.14-4.84,17.63-4.84,13.57,0,22.15,6.71,25.43,15.76l8.11-10.92c4.68-3.28,10.3-4.84,17.78-4.84,15.76,0,24.8,9.2,26.68,20.59,.62,4.21,.78,8.42,.78,15.13Z"/>
      <path class="cls-2" d="M686.04,157.33h-58.97c1.4,17.47,9.2,22.93,19.19,22.93,9.2,0,15.91-5.15,17.32-14.04h21.53c-4.21,19.34-19.81,29.17-39.31,29.17-22.77,0-40.4-14.2-40.4-43.37,0-25.43,16.69-43.99,42.12-43.99s38.84,19.34,38.84,41.96c0,2.03,0,4.52-.31,7.33Zm-58.34-14.04h36.5c-1.4-13.1-7.33-20.12-17.63-20.12s-17,6.4-18.88,20.12Z"/>
      <path class="cls-2" d="M781.82,193.21h-21.53v-12.79l-6.24,9.2c-4.68,3.59-13.1,5.77-21.53,5.77-23.24,0-36.97-17.63-36.97-42.12,0-30.11,18.41-45.24,39.78-45.24,6.86,0,15.29,1.72,19.5,4.68l5.46,8.58v-42.74h21.53v114.66Zm-21.53-40.56v-4.06c0-18.72-10.76-25.43-20.75-25.43-12.48,0-21.68,9.52-21.68,28.7,0,17,8.11,28.39,20.9,28.39,11.86,0,21.53-7.33,21.53-27.61Z"/>
      <path class="cls-2" d="M824.4,90.72c0,6.86-4.84,11.39-11.86,11.39s-11.86-4.52-11.86-11.39,4.84-11.39,11.86-11.39,11.86,4.68,11.86,11.39Zm-22.62,102.49V110.22h21.53v82.99h-21.53Z"/>
      <path class="cls-2" d="M889.92,181.04l-4.06,8.89c-5.77,3.9-12.79,5.46-20.59,5.46-14.35,0-26.68-8.42-26.68-24.18,0-18.25,15.6-28.55,45.71-28.55h5.3v-1.72c0-2.5,0-4.99-.31-7.8-.62-5.77-4.37-9.98-12.79-9.98s-13.26,4.99-13.88,14.04l-20.9,.16c.62-18.72,15.76-29.33,35.57-29.33,23.24,0,31.98,10.14,33.23,24.49,.31,3.9,.47,8.27,.47,12.79v26.83c0,6.24,.31,11.86,1.56,21.06h-21.06l-1.56-12.17Zm-.31-18.41v-6.71c-17.16-1.25-28.7,2.65-28.7,13.57,0,7.33,4.99,10.76,12.64,10.76,8.74,0,16.07-6.08,16.07-17.63Z"/>
    </g>
  </g>
  <g>
    <path class="cls-3" d="M570.73,257.45l-5.98,18.01h-6.79l18.31-50.93h8.56l17.57,50.93h-6.86l-6.05-18.01h-18.75Zm17.05-5.17l-7.38-22.74-7.9,22.74h15.28Z"/>
    <path class="cls-3" d="M660.56,250.88v24.58h-5.61v-8.86l-2.29,4.72c-2.88,3.25-7.38,5.17-13.21,5.17-14.84,0-23.1-11.37-23.1-26.28s9.6-26.72,24.06-26.72c12.92,0,19.71,7.31,20.74,17.27l.07,.74h-6.35l-.15-.74c-1.48-7.31-5.98-12.25-14.47-12.25-10.41,0-16.83,9.08-16.83,21.41s6.35,21.55,16.39,21.55c8.27,0,14.39-6.35,14.39-15.43h-11.88v-5.17h18.23Z"/>
    <path class="cls-3" d="M717.61,275.46h-33.88v-50.93h33.14v5.17h-26.8v17.72h24.58v5.17h-24.58v17.72h27.53v5.17Z"/>
    <path class="cls-3" d="M768.24,275.46l-23.99-44.73c.15,5.98,.22,13.29,.22,19.27v25.47h-6.35v-50.93h9.74l23.99,44.73c-.15-5.98-.22-13.29-.22-19.27v-25.47h6.2l.15,50.93h-9.74Z"/>
    <path class="cls-3" d="M843.09,240.77l.07,.74h-6.35l-.15-.74c-1.48-7.31-5.98-12.25-14.47-12.25-10.41,0-16.83,9.08-16.83,21.41s6.35,21.55,16.39,21.55c8.49,0,12.99-4.95,14.47-12.25l.15-.74h6.35l-.07,.74c-.96,9.23-7.82,17.27-21.26,17.27-14.84,0-23.1-11.37-23.1-26.28s9.6-26.72,24.06-26.72c12.92,0,19.71,7.31,20.74,17.27Z"/>
    <path class="cls-3" d="M883.24,275.46h-6.35v-20.08l-18.01-30.86h7.31l14.17,24.73,13.73-24.73h7.16l-18.01,30.86v20.08Z"/>
    <path class="cls-3" d="M912.54,271.77c0,2.73-1.99,4.72-4.72,4.72s-4.72-1.99-4.72-4.72,1.99-4.72,4.72-4.72,4.72,1.99,4.72,4.72Z"/>
  </g>
</svg>