<?xml version="1.0" encoding="UTF-8"?>
<svg id="Layer_1" data-name="Layer 1" xmlns="http://www.w3.org/2000/svg" xmlns:xlink="http://www.w3.org/1999/xlink" viewBox="0 0 910.26 277.92">
  <defs>
    <style>
      .cls-1 {
        fill: #ddd;
      }

      .cls-2 {
        fill: url(#linear-gradient-2);
      }

      .cls-3 {
        fill: #fff;
      }

      .cls-4 {
        fill: url(#linear-gradient-3);
      }

      .cls-5 {
        fill: url(#linear-gradient);
      }
    </style>
    <linearGradient id="linear-gradient" x1="-86.41" y1="177.71" x2="175.3" y2="-80.55" gradientUnits="userSpaceOnUse">
      <stop offset="0" stop-color="#572297"/>
      <stop offset="1" stop-color="#2b117d"/>
    </linearGradient>
    <linearGradient id="linear-gradient-2" x1="-35.49" y1="229.31" x2="226.22" y2="-28.95" xlink:href="#linear-gradient"/>
    <linearGradient id="linear-gradient-3" x1="-35" y1="229.81" x2="226.71" y2="-28.46" xlink:href="#linear-gradient"/>
  </defs>
  <g>
    <polygon class="cls-5" points="0 0 0 30.48 63.71 30.48 63.71 62.57 0 62.57 0 93.05 93.05 93.05 93.05 0 0 0"/>
    <polygon class="cls-2" points="0 194.9 30.48 194.9 30.48 131.19 62.57 131.19 62.57 194.9 93.05 194.9 93.05 101.85 0 101.85 0 194.9"/>
    <polygon class="cls-4" points="197.25 0 166.77 0 166.77 63.71 134.68 63.71 134.68 0 104.2 0 104.2 93.05 197.25 93.05 197.25 0"/>
  </g>
  <g>
    <path class="cls-3" d="M165.4,180.59l-3.42,8.71c-5.91,3.73-12.92,5.6-20.54,5.6-13.69,0-26.61-8.56-26.61-24.59,0-17.74,16.81-28.63,44.97-28.63h5.29v-1.24c0-1.71,0-3.42-.31-6.07-.47-4.2-3.89-7.94-9.96-7.94-6.54,0-10.27,4.2-10.74,11.36l-26.45,.16c.16-19.45,17.43-30.5,38.43-30.5,26.3,0,35.32,11.67,36.57,26.76,.31,4.2,.47,9.02,.47,14.16v23.34c0,6.22,.31,11.83,1.56,21.01h-27.39l-1.87-12.14Zm-.31-17.58v-5.45c-12.6-.93-21.63,2.33-21.63,10.58,0,4.98,3.89,7.78,9.49,7.78s12.14-4.2,12.14-12.92Z"/>
    <path class="cls-3" d="M278.99,133.9h-27.54c-1.24-5.76-4.05-9.02-9.02-9.02-3.89,0-6.69,2.49-6.69,6.07,0,4.67,3.73,7.78,19.61,11.67,15.09,3.73,25.83,10.27,25.83,26.3,0,17.74-16.65,25.99-36.72,25.99-22.56,0-37.97-9.34-40.15-28.01h27.54c1.56,6.38,6.54,10.58,12.45,10.58,4.98,0,8.87-2.02,8.87-6.38,0-5.29-5.29-8.25-20.07-11.67-15.87-3.73-25.36-11.05-25.36-25.21,0-16.49,14.32-26.76,36.41-26.76,20.7,0,32.68,11.36,34.86,26.45Z"/>
    <path class="cls-3" d="M361.15,133.9h-27.54c-1.24-5.76-4.05-9.02-9.02-9.02-3.89,0-6.69,2.49-6.69,6.07,0,4.67,3.73,7.78,19.61,11.67,15.09,3.73,25.83,10.27,25.83,26.3,0,17.74-16.65,25.99-36.72,25.99-22.56,0-37.97-9.34-40.15-28.01h27.54c1.56,6.38,6.54,10.58,12.45,10.58,4.98,0,8.87-2.02,8.87-6.38,0-5.29-5.29-8.25-20.07-11.67-15.87-3.73-25.36-11.05-25.36-25.21,0-16.49,14.32-26.76,36.41-26.76,20.7,0,32.68,11.36,34.86,26.45Z"/>
    <path class="cls-3" d="M421.05,180.59l-3.42,8.71c-5.91,3.73-12.92,5.6-20.54,5.6-13.69,0-26.61-8.56-26.61-24.59,0-17.74,16.81-28.63,44.97-28.63h5.29v-1.24c0-1.71,0-3.42-.31-6.07-.47-4.2-3.89-7.94-9.96-7.94-6.54,0-10.27,4.2-10.74,11.36l-26.45,.16c.16-19.45,17.43-30.5,38.43-30.5,26.3,0,35.32,11.67,36.57,26.76,.31,4.2,.47,9.02,.47,14.16v23.34c0,6.22,.31,11.83,1.56,21.01h-27.39l-1.87-12.14Zm-.31-17.58v-5.45c-12.6-.93-21.63,2.33-21.63,10.58,0,4.98,3.89,7.78,9.49,7.78s12.14-4.2,12.14-12.92Z"/>
    <path class="cls-1" d="M590.66,143.4v49.33h-21.47v-43.1c0-4.82-.16-9.34-.62-13.54-1.09-8.56-5.76-13.23-14-13.23-9.65,0-15.09,8.25-15.09,27.39v42.48h-21.32v-43.1c0-4.82-.16-9.34-.62-13.54-1.09-8.56-5.91-13.23-14.16-13.23-9.65,0-14.94,8.25-14.94,27.39v42.48h-21.47V109.94h21.47v12.6l6.07-9.96c4.67-3.27,10.11-4.82,17.58-4.82,13.54,0,22.1,6.69,25.36,15.72l8.09-10.89c4.67-3.27,10.27-4.82,17.74-4.82,15.72,0,24.74,9.18,26.61,20.54,.62,4.2,.78,8.4,.78,15.09Z"/>
    <path class="cls-1" d="M684.33,156.93h-58.82c1.4,17.43,9.18,22.87,19.14,22.87,9.18,0,15.87-5.13,17.27-14h21.47c-4.2,19.29-19.76,29.1-39.21,29.1-22.72,0-40.3-14.16-40.3-43.26,0-25.36,16.65-43.88,42.01-43.88s38.75,19.29,38.75,41.86c0,2.02,0,4.51-.31,7.31Zm-58.2-14h36.41c-1.4-13.07-7.31-20.07-17.58-20.07s-16.96,6.38-18.83,20.07Z"/>
    <path class="cls-1" d="M779.86,192.72h-21.47v-12.76l-6.22,9.18c-4.67,3.58-13.07,5.76-21.47,5.76-23.19,0-36.88-17.58-36.88-42.01,0-30.03,18.36-45.12,39.68-45.12,6.85,0,15.25,1.71,19.45,4.67l5.45,8.56v-42.64h21.47v114.37Zm-21.47-40.46v-4.05c0-18.67-10.74-25.36-20.7-25.36-12.45,0-21.63,9.49-21.63,28.63,0,16.96,8.09,28.32,20.85,28.32,11.83,0,21.47-7.31,21.47-27.54Z"/>
    <path class="cls-1" d="M822.34,90.49c0,6.85-4.82,11.36-11.83,11.36s-11.83-4.51-11.83-11.36,4.82-11.36,11.83-11.36,11.83,4.67,11.83,11.36Zm-22.56,102.23V109.94h21.47v82.78h-21.47Z"/>
    <path class="cls-1" d="M887.69,180.59l-4.05,8.87c-5.76,3.89-12.76,5.45-20.54,5.45-14.32,0-26.61-8.4-26.61-24.12,0-18.21,15.56-28.48,45.59-28.48h5.29v-1.71c0-2.49,0-4.98-.31-7.78-.62-5.76-4.36-9.96-12.76-9.96s-13.23,4.98-13.85,14l-20.85,.16c.62-18.67,15.72-29.25,35.48-29.25,23.19,0,31.9,10.11,33.14,24.43,.31,3.89,.47,8.25,.47,12.76v26.76c0,6.22,.31,11.83,1.56,21.01h-21.01l-1.56-12.14Zm-.31-18.36v-6.69c-17.12-1.24-28.63,2.65-28.63,13.54,0,7.31,4.98,10.74,12.6,10.74,8.71,0,16.03-6.07,16.03-17.58Z"/>
  </g>
  <g>
    <path class="cls-3" d="M560.79,258.45l-6.11,18.41h-6.94l18.72-52.07h8.75l17.96,52.07h-7.02l-6.19-18.41h-19.17Zm17.43-5.28l-7.55-23.24-8.08,23.24h15.62Z"/>
    <path class="cls-3" d="M652.63,251.73v25.13h-5.74v-9.06l-2.34,4.83c-2.94,3.32-7.55,5.28-13.51,5.28-15.17,0-23.62-11.62-23.62-26.87s9.81-27.32,24.6-27.32c13.21,0,20.15,7.47,21.21,17.66l.08,.75h-6.49l-.15-.75c-1.51-7.47-6.11-12.53-14.79-12.53-10.64,0-17.21,9.28-17.21,21.89s6.49,22.04,16.75,22.04c8.45,0,14.72-6.49,14.72-15.77h-12.15v-5.28h18.64Z"/>
    <path class="cls-3" d="M710.96,276.86h-34.64v-52.07h33.89v5.28h-27.4v18.11h25.13v5.28h-25.13v18.11h28.15v5.28Z"/>
    <path class="cls-3" d="M762.73,276.86l-24.53-45.73c.15,6.11,.23,13.58,.23,19.7v26.04h-6.49v-52.07h9.96l24.53,45.73c-.15-6.11-.23-13.58-.23-19.7v-26.04h6.34l.15,52.07h-9.96Z"/>
    <path class="cls-3" d="M839.25,241.39l.08,.75h-6.49l-.15-.75c-1.51-7.47-6.11-12.53-14.79-12.53-10.64,0-17.21,9.28-17.21,21.89s6.49,22.04,16.75,22.04c8.68,0,13.28-5.06,14.79-12.53l.15-.75h6.49l-.08,.75c-.98,9.43-8,17.66-21.73,17.66-15.17,0-23.62-11.62-23.62-26.87s9.81-27.32,24.6-27.32c13.21,0,20.15,7.47,21.21,17.66Z"/>
    <path class="cls-3" d="M880.3,276.86h-6.49v-20.53l-18.41-31.55h7.47l14.49,25.28,14.04-25.28h7.32l-18.41,31.55v20.53Z"/>
    <path class="cls-3" d="M910.26,273.09c0,2.79-2.04,4.83-4.83,4.83s-4.83-2.04-4.83-4.83,2.04-4.83,4.83-4.83,4.83,2.04,4.83,4.83Z"/>
  </g>
</svg>