<svg xmlns="http://www.w3.org/2000/svg" xmlns:xlink="http://www.w3.org/1999/xlink" width="38.298" height="38.298" viewBox="0 0 38.298 38.298">
  <defs>
    <clipPath id="clip-path">
      <path id="Path_17" data-name="Path 17" d="M174.543,318.543h38.3v38.3h-38.3Zm0,0" transform="translate(-174.543 -318.543)"/>
    </clipPath>
  </defs>
  <g id="TEXT_48_" data-name="TEXT (48)" transform="translate(0 0)" clip-path="url(#clip-path)">
    <path id="Path_16" data-name="Path 16" d="M203.933,323.39a.777.777,0,1,1,.091-1.551l4.875.3a.777.777,0,0,1,.73.821.8.8,0,0,1-.009.082l-.815,4.816a.777.777,0,1,1-1.533-.255l.5-2.928-10.351,7.3a.776.776,0,0,1-.9,0l-5.425-3.85-7.351,5.849a.777.777,0,0,1-.967-1.217l7.807-6.212a.777.777,0,0,1,.961,0l5.425,3.851,9.685-6.827Zm-16.3-4.847A13.093,13.093,0,1,0,195.51,342.1l3.139,3.139a1.685,1.685,0,0,0,.265,2.029L208,356.351a1.684,1.684,0,0,0,2.375,0l1.977-1.977a1.684,1.684,0,0,0,0-2.375l-9.086-9.086a1.685,1.685,0,0,0-2.029-.265L198.1,339.51a13.036,13.036,0,0,0,2.632-7.874c0-.031,0-.061,0-.092l-4.043,2.85a9.458,9.458,0,1,1-.288-6.325l.578.41,2.731-1.925A13.1,13.1,0,0,0,187.636,318.543Zm0,0" transform="translate(-174.543 -318.543)" fill="#fffff9" fill-rule="evenodd"/>
  </g>
</svg>
