<svg id="whatsapp" xmlns="http://www.w3.org/2000/svg" width="25.974" height="26.028" viewBox="0 0 25.974 26.028">
  <path id="Path_18" data-name="Path 18" d="M-.01,26.026l1.391-5.089c.126-.461.262-.92.373-1.385a.575.575,0,0,0-.042-.378A12.506,12.506,0,0,1,.128,12.082,12.633,12.633,0,0,1,5.9,2.145,12.044,12.044,0,0,1,13.681.032a12.376,12.376,0,0,1,11.012,7.5,12.3,12.3,0,0,1-1.322,13,12.359,12.359,0,0,1-8.534,5.139A12.7,12.7,0,0,1,7.01,24.346a.624.624,0,0,0-.4-.036C4.5,24.852,2.4,25.405.294,25.956c-.085.022-.171.04-.3.07Zm3.1-3.066c.08-.015.115-.019.148-.028,1.187-.312,2.375-.619,3.559-.94a.774.774,0,0,1,.657.092,10.444,10.444,0,0,0,7.663,1.332A10.725,10.725,0,0,0,13.54,2.193,10.456,10.456,0,0,0,6.226,4.606a10.459,10.459,0,0,0-3.932,7.708A10.413,10.413,0,0,0,3.976,18.7a.746.746,0,0,1,.1.675c-.338,1.178-.654,2.362-.988,3.584Z" transform="translate(0.01 0.002)" fill="#fff"/>
  <path id="Path_19" data-name="Path 19" d="M443.318,473.667c.573-.148.839.208,1.035.72.288.749.605,1.487.922,2.225a.641.641,0,0,1-.058.688c-.259.348-.511.7-.784,1.037a.5.5,0,0,0-.058.64,8.849,8.849,0,0,0,4.453,3.831.492.492,0,0,0,.628-.152c.328-.408.67-.807.984-1.225a.49.49,0,0,1,.658-.194c.915.428,1.828.859,2.73,1.313a.512.512,0,0,1,.2.4,2.484,2.484,0,0,1-1.9,2.644,3.8,3.8,0,0,1-2.55.024,13.107,13.107,0,0,1-7.213-5.378,7.289,7.289,0,0,1-1.314-2.619A3.655,3.655,0,0,1,442.121,474,1.359,1.359,0,0,1,443.318,473.667Z" transform="translate(-434.494 -466.702)" fill="#fff"/>
</svg>
